<?xml version="1.0" encoding="UTF-8"?>
<svg xmlns="http://www.w3.org/2000/svg" viewBox="0 0 256 256" width="256" height="256" role="img" aria-labelledby="title desc">
  <title id="title">DevOps role avatar</title>
  <desc id="desc">A scalable GitHub Primer-inspired illustrated professional avatar without visible text.</desc>
  <style>
    .outline { stroke: #1f2328; stroke-width: 5; stroke-linecap: round; stroke-linejoin: round; }
    .thin { stroke-width: 3.5; }
  </style>
  <defs><clipPath id="avatar-clip"><rect x="4" y="4" width="248" height="248" rx="52"/></clipPath></defs>
  <g clip-path="url(#avatar-clip)">
    <rect x="4" y="4" width="248" height="248" rx="52" fill="#ffffff"/>
    <path d="M-12 95C42 18 121 19 164 61c29 29 54 24 105-7v214H-12z" fill="#f6f8fa"/>
    <circle cx="210" cy="52" r="34" fill="#57606a" opacity=".12"/>
    <path d="M24 64h32M40 48v32M201 108h22M212 97v22" fill="none" stroke="#57606a" stroke-width="4" stroke-linecap="round" opacity=".45"/>
    <circle cx="47" cy="122" r="5" fill="#57606a" opacity=".5"/>
    <circle cx="205" cy="143" r="5" fill="#57606a" opacity=".5"/>
    <path d="M197 52c5-9 11-9 17 0 5 8 9 8 13 0-4-9-8-9-13 0-6 9-12 9-17 0z" fill="none" stroke="#57606a" stroke-width="3.5" stroke-linecap="round" stroke-linejoin="round"/>

    <path d="M31 256c2-42 34-64 78-73h38c44 9 76 31 78 73z" fill="#57606a" class="outline"/><path d="M109 175h38l7 19c-15 14-37 14-52 0z" fill="#c68642" class="outline"/><path d="M96 189c5 20 16 29 32 29s27-9 32-29" fill="none" stroke="#f6f8fa" stroke-width="7" stroke-linecap="round"/><path d="M111 207l-3 25M145 207l3 25" fill="none" stroke="#f6f8fa" stroke-width="4" stroke-linecap="round"/><circle cx="108" cy="234" r="4" fill="#f6f8fa"/><circle cx="148" cy="234" r="4" fill="#f6f8fa"/>
    
          <path d="M82 89c2-28 20-46 46-46 28 0 46 18 47 47z" fill="#24292f" class="outline"/>
          <path d="M77 88c29-9 69-9 101 1l-3 24c-31-8-62-8-94 0z" fill="#f6f8fa" class="outline"/>
          <path d="M92 98c23-5 47-5 71 0" fill="none" class="outline thin" opacity=".55"/>
        
    <circle cx="81" cy="139" r="16" fill="#c68642" class="outline"/>
    <circle cx="175" cy="139" r="16" fill="#c68642" class="outline"/>
    <path d="M82 111c0-36 18-58 46-58s46 22 46 58l-2 35c-2 29-21 48-44 48s-42-19-44-48z" fill="#c68642" class="outline"/>
    <path d="M86 149c-5-8-7-14-5-19M170 149c5-8 7-14 5-19" fill="none" class="outline thin" opacity=".52"/>
    <path d="M82 89c2-28 20-46 46-46 28 0 46 18 47 47z" fill="#24292f" class="outline"/><path d="M77 88c29-9 69-9 101 1l-3 24c-31-8-62-8-94 0z" fill="#f6f8fa" class="outline"/><path d="M92 98c23-5 47-5 71 0" fill="none" class="outline thin" opacity=".55"/>
    
      <path d="M98 109q8-4 16 0" fill="none" class="outline thin"/>
      <path d="M142 109q8-4 16 0" fill="none" class="outline thin"/>
      <circle cx="108" cy="126" r="4.5" fill="#1f2328"/><circle cx="148" cy="126" r="4.5" fill="#1f2328"/>
      <path d="M128 132l-3 15 7 2" fill="none" class="outline thin" opacity=".72"/>
      <path d="M117 159h22" fill="none" class="outline thin"/>
    
    <circle cx="177" cy="145" r="4.5" fill="#57606a" stroke="#1f2328" stroke-width="2.5"/>
  </g>
  <rect x="4" y="4" width="248" height="248" rx="52" fill="none" stroke="#d0d7de" stroke-width="4"/>
</svg>
