<?xml version="1.0" encoding="UTF-8"?>
<svg xmlns="http://www.w3.org/2000/svg" viewBox="0 0 256 256" width="256" height="256" role="img" aria-labelledby="title desc">
  <title id="title">ENTJ — Analyst MBTI avatar</title>
  <desc id="desc">A scalable, accessible GitHub Primer-inspired illustrated avatar.</desc>
  <style>
    .outline { stroke: #1f2328; stroke-width: 5; stroke-linecap: round; stroke-linejoin: round; }
    .thin { stroke-width: 3.5; }
  </style>
  <defs>
    <clipPath id="avatar-clip"><rect x="4" y="4" width="248" height="248" rx="52"/></clipPath>
  </defs>
  <g clip-path="url(#avatar-clip)">
    <rect x="4" y="4" width="248" height="248" rx="52" fill="#ffffff"/>
    <path d="M-12 95C42 18 121 19 164 61c29 29 54 24 105-7v214H-12z" fill="#fbefff"/>
    <circle cx="210" cy="48" r="34" fill="#8250df" opacity=".14"/>
    <g aria-hidden="true" data-personality-icon="ENTJ"><path d="M200 64V35M201 38h20l-5 7 5 7h-20" fill="none" stroke="#8250df" stroke-width="3.5" stroke-linecap="round" stroke-linejoin="round"/></g>
    <path d="M24 64h32M40 48v32M201 108h22M212 97v22" fill="none" stroke="#8250df" stroke-width="4" stroke-linecap="round" opacity=".5"/>
    <circle cx="47" cy="122" r="5" fill="#8250df" opacity=".55"/>
    <circle cx="205" cy="143" r="5" fill="#8250df" opacity=".55"/>

    <path d="M31 256c2-42 34-64 78-73h38c44 9 76 31 78 73z" fill="#a475f9" class="outline"/>
    <path d="M109 175h38l7 19c-15 14-37 14-52 0z" fill="#c68642" class="outline"/>
    <path d="M91 196l22 23 15-20 15 20 22-23" fill="none" stroke="#f6f8fa" stroke-width="6" stroke-linecap="round" stroke-linejoin="round" opacity=".92"/>

    
          <path d="M73 123C67 78 88 48 128 47c40 1 61 31 55 76l-8 46-24 3 15-68c-15-5-29-15-39-29-9 15-22 25-38 30l15 67-24-3z" fill="#2f1b12" stroke="#1f2328" stroke-width="5" stroke-linecap="round" stroke-linejoin="round"/>
          <path d="M127 70c-11 17-24 28-39 34M128 70c10 17 23 28 38 34" fill="none" class="outline"/>
        
    <circle cx="81" cy="139" r="16" fill="#c68642" class="outline"/>
    <circle cx="175" cy="139" r="16" fill="#c68642" class="outline"/>
    <path d="M82 111c0-36 18-58 46-58s46 22 46 58l-2 35c-2 29-21 48-44 48s-42-19-44-48z" fill="#c68642" class="outline"/>
    <path d="M86 149c-5-8-7-14-5-19M170 149c5-8 7-14 5-19" fill="none" class="outline thin" opacity=".52"/>
    <path d="M87 106c18-8 31-20 40-37 9 16 23 28 42 37l-5-31-37-23-36 23z" fill="#2f1b12" stroke="#1f2328" stroke-width="5" stroke-linecap="round" stroke-linejoin="round"/>
    
      <path d="M98 111l16-3" fill="none" class="outline thin"/>
      <path d="M142 108l16 3" fill="none" class="outline thin"/>
      <circle cx="108" cy="126" r="4.5" fill="#1f2328"/><circle cx="148" cy="126" r="4.5" fill="#1f2328"/>
      <path d="M128 132l-3 15 7 2" fill="none" class="outline thin" opacity=".72"/>
      <path d="M116 157q12 10 25 0" fill="none" class="outline thin"/>
    
    <circle cx="177" cy="145" r="6" fill="#8250df" class="outline thin"/>

  </g>
  <rect x="4" y="4" width="248" height="248" rx="52" fill="none" stroke="#d0d7de" stroke-width="4"/>
</svg>
