<?xml version="1.0" encoding="UTF-8"?>
<svg xmlns="http://www.w3.org/2000/svg" viewBox="0 0 256 256" width="256" height="256" role="img" aria-labelledby="title desc">
  <title id="title">ESFP — Explorer MBTI avatar</title>
  <desc id="desc">A scalable, accessible GitHub Primer-inspired illustrated avatar.</desc>
  <style>
    .outline { stroke: #1f2328; stroke-width: 5; stroke-linecap: round; stroke-linejoin: round; }
    .thin { stroke-width: 3.5; }
  </style>
  <defs>
    <clipPath id="avatar-clip"><rect x="4" y="4" width="248" height="248" rx="52"/></clipPath>
  </defs>
  <g clip-path="url(#avatar-clip)">
    <rect x="4" y="4" width="248" height="248" rx="52" fill="#ffffff"/>
    <path d="M-12 95C42 18 121 19 164 61c29 29 54 24 105-7v214H-12z" fill="#fff8c5"/>
    <circle cx="210" cy="48" r="34" fill="#bf8700" opacity=".14"/>
    <g aria-hidden="true" data-personality-icon="ESFP"><rect x="205" y="34" width="10" height="20" rx="5" fill="none" stroke="#bf8700" stroke-width="3.5" stroke-linecap="round" stroke-linejoin="round"/><path d="M200 48v2a10 10 0 0020 0v-2M210 60v6M204 66h12" fill="none" stroke="#bf8700" stroke-width="3.5" stroke-linecap="round" stroke-linejoin="round"/></g>
    <path d="M24 64h32M40 48v32M201 108h22M212 97v22" fill="none" stroke="#bf8700" stroke-width="4" stroke-linecap="round" opacity=".5"/>
    <circle cx="47" cy="122" r="5" fill="#bf8700" opacity=".55"/>
    <circle cx="205" cy="143" r="5" fill="#bf8700" opacity=".55"/>

    <path d="M31 256c2-42 34-64 78-73h38c44 9 76 31 78 73z" fill="#e3b341" class="outline"/>
    <path d="M109 175h38l7 19c-15 14-37 14-52 0z" fill="#d7a06f" class="outline"/>
    <path d="M91 196l22 23 15-20 15 20 22-23" fill="none" stroke="#f6f8fa" stroke-width="6" stroke-linecap="round" stroke-linejoin="round" opacity=".92"/>

    
          <path d="M164 53c27 8 38 31 27 52-8-15-23-22-45-20z" fill="#3b2417" stroke="#1f2328" stroke-width="5" stroke-linecap="round" stroke-linejoin="round"/>
          <path d="M76 116C68 78 88 48 127 46c39 2 60 33 52 71l-13-12c-7-18-20-30-38-38-18 9-31 21-39 39z" fill="#3b2417" stroke="#1f2328" stroke-width="5" stroke-linecap="round" stroke-linejoin="round"/>
          <path d="M162 58c12 5 19 13 22 25" fill="none" class="outline thin"/>
        
    <circle cx="81" cy="139" r="16" fill="#d7a06f" class="outline"/>
    <circle cx="175" cy="139" r="16" fill="#d7a06f" class="outline"/>
    <path d="M82 111c0-36 18-58 46-58s46 22 46 58l-2 35c-2 29-21 48-44 48s-42-19-44-48z" fill="#d7a06f" class="outline"/>
    <path d="M86 149c-5-8-7-14-5-19M170 149c5-8 7-14 5-19" fill="none" class="outline thin" opacity=".52"/>
    <path d="M85 106c10-19 24-32 43-39 19 8 33 21 42 40l-8-34-34-20-35 20z" fill="#3b2417" stroke="#1f2328" stroke-width="5" stroke-linecap="round" stroke-linejoin="round"/>
    
      <path d="M98 109q8-4 16 0" fill="none" class="outline thin"/>
      <path d="M142 109q8-4 16 0" fill="none" class="outline thin"/>
      <path d="M100 126q8 6 16 0" fill="none" class="outline thin"/><circle cx="150" cy="126" r="4.5" fill="#1f2328"/>
      <path d="M128 132l-3 15 7 2" fill="none" class="outline thin" opacity=".72"/>
      <path d="M113 155q15 21 30 0" fill="#f6f8fa" class="outline thin"/>
    
    <path d="M178 78l4 9 10 1-8 7 3 10-9-5-9 5 3-10-8-7 10-1z" fill="#bf8700" stroke="#1f2328" stroke-width="2.5"/>

  </g>
  <rect x="4" y="4" width="248" height="248" rx="52" fill="none" stroke="#d0d7de" stroke-width="4"/>
</svg>
