<?xml version="1.0" encoding="UTF-8"?>
<svg xmlns="http://www.w3.org/2000/svg" viewBox="0 0 256 256" width="256" height="256" role="img" aria-labelledby="title desc">
  <title id="title">Security role avatar</title>
  <desc id="desc">A scalable GitHub Primer-inspired illustrated professional avatar without visible text.</desc>
  <style>
    .outline { stroke: #1f2328; stroke-width: 5; stroke-linecap: round; stroke-linejoin: round; }
    .thin { stroke-width: 3.5; }
  </style>
  <defs><clipPath id="avatar-clip"><rect x="4" y="4" width="248" height="248" rx="52"/></clipPath></defs>
  <g clip-path="url(#avatar-clip)">
    <rect x="4" y="4" width="248" height="248" rx="52" fill="#ffffff"/>
    <path d="M-12 95C42 18 121 19 164 61c29 29 54 24 105-7v214H-12z" fill="#ffebe9"/>
    <circle cx="210" cy="52" r="34" fill="#cf222e" opacity=".12"/>
    <path d="M24 64h32M40 48v32M201 108h22M212 97v22" fill="none" stroke="#cf222e" stroke-width="4" stroke-linecap="round" opacity=".45"/>
    <circle cx="47" cy="122" r="5" fill="#cf222e" opacity=".5"/>
    <circle cx="205" cy="143" r="5" fill="#cf222e" opacity=".5"/>
    <path d="M211 39l13 5v10c0 8-5 13-13 17-8-4-13-9-13-17V44zM205 53h12v10h-12zM208 53v-4a3 3 0 016 0v4" fill="none" stroke="#cf222e" stroke-width="3.5" stroke-linecap="round" stroke-linejoin="round"/>

    <path d="M31 256c2-42 34-64 78-73h38c44 9 76 31 78 73z" fill="#cf222e" class="outline"/><path d="M109 175h38l7 19c-15 14-37 14-52 0z" fill="#8d5524" class="outline"/><path d="M128 201v55M94 223h25v20H94M137 223h25v20h-25" fill="none" stroke="#f6f8fa" stroke-width="4" stroke-linejoin="round"/><path d="M101 190l27 18 27-18" fill="none" stroke="#f6f8fa" stroke-width="6" stroke-linecap="round"/>
    
          <path d="M80 109c-1-32 12-54 38-61 20-5 41 0 58 15-9 2-17 8-24 17 12 0 20 3 27 9-16 13-38 18-66 14-10-1-21 1-33 6z" fill="#151b23" stroke="#1f2328" stroke-width="5" stroke-linecap="round" stroke-linejoin="round"/>
          <path d="M82 92v21m9-27v22" fill="none" stroke="#f6f8fa" stroke-width="3" opacity=".55"/>
        
    <circle cx="81" cy="139" r="16" fill="#8d5524" class="outline"/>
    <circle cx="175" cy="139" r="16" fill="#8d5524" class="outline"/>
    <path d="M82 111c0-36 18-58 46-58s46 22 46 58l-2 35c-2 29-21 48-44 48s-42-19-44-48z" fill="#8d5524" class="outline"/>
    <path d="M86 149c-5-8-7-14-5-19M170 149c5-8 7-14 5-19" fill="none" class="outline thin" opacity=".52"/>
    <path d="M82 102c22-5 39-18 51-38 10 11 24 20 42 25-15 13-37 18-66 14-9-1-18-1-27-1z" fill="#151b23" stroke="#1f2328" stroke-width="5" stroke-linecap="round" stroke-linejoin="round"/>
    
      <path d="M98 112l16-4" fill="none" class="outline thin"/>
      <path d="M142 108l16 4" fill="none" class="outline thin"/>
      <circle cx="106" cy="126" r="4.5" fill="#1f2328"/><circle cx="146" cy="126" r="4.5" fill="#1f2328"/>
      <path d="M128 132l-3 15 7 2" fill="none" class="outline thin" opacity=".72"/>
      <path d="M116 160q12-3 24 0" fill="none" class="outline thin"/>
    
    
  </g>
  <rect x="4" y="4" width="248" height="248" rx="52" fill="none" stroke="#d0d7de" stroke-width="4"/>
</svg>
